<?xml version="1.0" encoding="UTF-8" standalone="no"?>
<svg
   width="64"
   height="63.99992"
   viewBox="0 0 16.933333 16.933312"
   version="1.1"
   id="svg8"
   inkscape:version="1.1.1 (3bf5ae0d25, 2021-09-20)"
   sodipodi:docname="icone.svg"
   inkscape:export-filename="E:\Users\Bastien\Downloads\image.png"
   inkscape:export-xdpi="96"
   inkscape:export-ydpi="96"
   xml:space="preserve"
   xmlns:inkscape="http://www.inkscape.org/namespaces/inkscape"
   xmlns:sodipodi="http://sodipodi.sourceforge.net/DTD/sodipodi-0.dtd"
   xmlns="http://www.w3.org/2000/svg"
   xmlns:svg="http://www.w3.org/2000/svg"
   xmlns:rdf="http://www.w3.org/1999/02/22-rdf-syntax-ns#"
   xmlns:cc="http://creativecommons.org/ns#"
   xmlns:dc="http://purl.org/dc/elements/1.1/"><defs
     id="defs2"><filter
       style="color-interpolation-filters:sRGB"
       inkscape:label="Drop Shadow"
       id="filter1208"><feFlood
         flood-opacity="0.635294"
         flood-color="rgb(0,0,0)"
         result="flood"
         id="feFlood1198" /><feComposite
         in="flood"
         in2="SourceGraphic"
         operator="in"
         result="composite1"
         id="feComposite1200" /><feGaussianBlur
         in="composite1"
         stdDeviation="0.1"
         result="blur"
         id="feGaussianBlur1202" /><feOffset
         dx="0.3"
         dy="0.3"
         result="offset"
         id="feOffset1204" /><feComposite
         in="SourceGraphic"
         in2="offset"
         operator="over"
         result="composite2"
         id="feComposite1206" /></filter></defs><sodipodi:namedview
     id="base"
     pagecolor="#ffffff"
     bordercolor="#666666"
     borderopacity="1.0"
     inkscape:pageopacity="0.0"
     inkscape:pageshadow="2"
     inkscape:zoom="11.313708"
     inkscape:cx="45.652582"
     inkscape:cy="33.189825"
     inkscape:document-units="px"
     inkscape:current-layer="layer2"
     showgrid="false"
     units="px"
     inkscape:window-width="2560"
     inkscape:window-height="1369"
     inkscape:window-x="2552"
     inkscape:window-y="-8"
     inkscape:window-maximized="1"
     fit-margin-top="0"
     fit-margin-left="0"
     fit-margin-right="0"
     fit-margin-bottom="0"
     objecttolerance="1"
     gridtolerance="1"
     guidetolerance="1"
     inkscape:document-rotation="0"
     showguides="false"
     inkscape:pagecheckerboard="0"
     inkscape:showpageshadow="2"
     inkscape:deskcolor="#d1d1d1" /><metadata
     id="metadata5"><rdf:RDF><cc:Work
         rdf:about=""><dc:format>image/svg+xml</dc:format><dc:type
           rdf:resource="http://purl.org/dc/dcmitype/StillImage" /></cc:Work></rdf:RDF></metadata><g
     inkscape:groupmode="layer"
     id="layer2"
     inkscape:label="background"
     style="display:inline"
     transform="translate(-24.226156,-8.1352668)"><g
       id="g1052"
       transform="matrix(0.54330264,0,0,0.54330264,19.10101,7.7724168)"
       style="display:inline;stroke:none;stroke-opacity:1"><path
         id="path1979"
         style="fill:#696e72;fill-opacity:1;stroke:none;stroke-width:0.539134;stroke-linecap:round;stroke-linejoin:round;stroke-dashoffset:21;stroke-opacity:1;paint-order:stroke markers fill"
         d="m 15.369095,14.079729 c -3.286301,0.1452 -5.83282,2.926754 -5.6879802,6.21307 0.1451799,3.285814 2.9260502,5.832162 6.2119102,5.68803 3.167782,-0.139295 5.648138,-2.728539 5.693892,-5.858525 l -1.041457,0.04585 c -0.06919,2.555567 -2.104916,4.659523 -4.698586,4.77317 -2.711476,0.118796 -5.005891,-1.982488 -5.125832,-4.693918 -0.119962,-2.71223 1.981202,-5.008162 4.693429,-5.128137 0.218665,-0.0097 0.434686,-0.0046 0.64701,0.01379 l -1.18e-4,-0.0027 a 0.52003588,0.58729741 87.479259 0 0 0.02442,-3.24e-4 0.52003588,0.58729741 87.479259 0 0 0.563851,-0.545205 0.52003588,0.58729741 87.479259 0 0 -0.609597,-0.493931 0.52003588,0.58729741 87.479259 0 0 -0.02435,0.0018 l -2.9e-4,-0.0066 c -0.212743,-0.01348 -0.428498,-0.01604 -0.646299,-0.0065 z" /><path
         id="path9736"
         style="fill:#808080;fill-opacity:1;stroke:none;stroke-width:0.539134;stroke-linecap:round;stroke-linejoin:round;stroke-dashoffset:21;stroke-opacity:1;paint-order:stroke markers fill"
         d="m 18.432719,14.773124 -0.517044,0.903764 c 0.813557,0.425834 1.517576,1.084063 2.00115,1.944179 0.107265,0.190793 0.199907,0.385919 0.279296,0.5837 l 0.0026,-0.0013 c 0.0035,0.0073 0.0072,0.01448 0.01103,0.02163 0.158962,0.282715 0.490752,0.397791 0.741089,0.257035 0.250391,-0.140586 0.324684,-0.483752 0.165953,-0.766551 -0.0042,-0.0071 -0.0085,-0.01418 -0.01296,-0.02114 l 0.0061,-0.003 c -0.08397,-0.195876 -0.179295,-0.389857 -0.286108,-0.57991 -0.579297,-1.030501 -1.419441,-1.821852 -2.391148,-2.338428 z"
         sodipodi:nodetypes="ccsccccccccc" /><path
         id="path4804"
         style="fill:#696e72;fill-opacity:1;stroke:none;stroke-width:0.539134;stroke-linecap:round;stroke-linejoin:round;stroke-dashoffset:21;stroke-opacity:1;paint-order:stroke markers fill"
         d="m 34.958096,13.346742 c 3.28039,0.244728 5.741443,3.10218 5.497071,6.382598 -0.244691,3.279905 -3.101457,5.740805 -6.381439,5.497157 -3.280443,-0.244038 -5.741999,-3.101056 -5.498316,-6.381525 0.175291,-2.356325 1.698597,-4.290069 3.758676,-5.10233 l -0.08176,1.09831 0.141393,0.01052 c -1.535556,0.736313 -2.645553,2.250919 -2.780677,4.071128 -0.200975,2.707432 1.830889,5.065273 4.538321,5.266262 2.706632,0.200917 5.063672,-1.829867 5.265732,-4.536416 0.202104,-2.707349 -1.828511,-5.065905 -4.535857,-5.268021 -0.218271,-0.0163 -0.434348,-0.01775 -0.647133,-0.0058 l 2.01e-4,-0.0027 a 0.58729741,0.52003588 4.2574346 0 1 -0.0244,-0.001 0.58729741,0.52003588 4.2574346 0 1 -0.547069,-0.562041 0.58729741,0.52003588 4.2574346 0 1 0.624287,-0.47523 0.58729741,0.52003588 4.2574346 0 1 0.02429,0.0026 l 5.37e-4,-0.0065 c 0.213057,-0.007 0.42879,-0.0031 0.646197,0.01314 z" /><path
         id="path845"
         style="fill:#f55c5c;fill-opacity:1;stroke:none;stroke-width:0.06347;stroke-opacity:1"
         d="m 19.412051,11.432159 -4.468891,8.201669 c -0.261864,0.676661 0.475949,0.97494 0.830315,0.957006 l 6.470449,-0.276544 -0.06162,-0.968252 -6.061781,0.149071 3.802523,-7.026579 2.865522,5.891189 0.822396,-0.397603 -2.914327,-6.082945 9.665897,-0.376661 c 0.152188,0.0035 0.20731,0.188391 0.111877,0.311679 l -5.359073,6.604922 c 0.118229,0.253582 0.440121,0.585752 0.602146,0.871625 l 5.235043,-6.525358 c 0.08688,-0.09158 0.152864,-0.133228 0.236456,0.03529 l 2.950251,6.701931 c 0.258706,0.532338 0.970427,0.130402 0.8422,-0.271306 l -3.603324,-8.4083 C 31.249657,10.546202 31.235212,10.515884 30.961593,10.52296 l -10.694192,0.440839 c -0.489487,0.02035 -0.693929,0.123369 -0.855346,0.468358 z"
         sodipodi:nodetypes="cccccccccccccccccccccc" /><path
         id="path2108"
         style="fill:#000000;stroke:none;stroke-width:0.20115;stroke-linecap:round;stroke-linejoin:round;stroke-dashoffset:21;stroke-opacity:1;paint-order:stroke markers fill"
         d="m 23.919048,17.905152 a 1.8846109,1.8846109 0 0 0 -1.79994,1.965717 1.8846109,1.8846109 0 0 0 1.965701,1.799552 1.8846109,1.8846109 0 0 0 1.799956,-1.96533 1.8846109,1.8846109 0 0 0 -1.965717,-1.799939 z m 0.04009,0.910646 a 0.97298525,0.97298525 0 0 1 1.014979,0.929383 0.97298525,0.97298525 0 0 1 -0.929398,1.014594 0.97298525,0.97298525 0 0 1 -1.014965,-0.928996 0.97298525,0.97298525 0 0 1 0.929384,-1.014981 z" /><path
         id="path12033"
         style="fill:#000000;stroke:none;stroke-width:0.06347;stroke-opacity:1"
         d="M 29.511748,7.026171 C 29.150874,7.054499 28.91297,7.2758674 29.022355,7.5892859 l 0.87867,2.0521479 c 0.241519,0.2443565 0.812246,0.00716 0.798166,-0.3313908 -0.0033,-0.078477 -0.110678,-0.4033821 -0.238462,-0.7219905 -0.200963,-0.5010527 -0.233304,-0.6155103 -0.139698,-0.6452954 0.100832,-0.032083 1.841662,-0.085351 2.199224,-0.092163 0.31756,-0.00603 0.47553,0.2407836 0.489349,0.5546754 0.0109,0.2475832 -0.02499,0.307675 -0.374449,0.6283787 -0.224959,0.2064475 -0.211507,0.536574 0.02892,0.7091126 0.244397,0.1336595 0.332763,0.1221209 0.593145,-0.020707 0.873052,-0.4788165 0.936714,-1.9380029 0.122013,-2.5045177 -0.330345,-0.2296948 -0.480002,-0.320783 -1.192932,-0.2963081 -0.891924,0.024671 -1.783165,0.0663 -2.67455,0.1049195 z"
         sodipodi:nodetypes="ccccssssccscccc" /><path
         id="path15181"
         style="fill:#000000;fill-opacity:1;stroke:none;stroke-width:0.06347;stroke-opacity:1"
         d="m 17.150998,8.1232765 c -0.600819,0.022777 -0.716572,0.4411686 -0.327896,0.7130624 0.506527,0.2624391 1.098216,0.4451222 1.654232,0.6612143 l 0.348978,0.5663618 c 0.47177,0.742337 1.084699,0.181155 0.929782,-0.2552483 L 19.499009,9.2400784 c 0.67956,-0.3129223 1.287516,-0.4663254 1.996334,-0.8164965 0.176583,-0.1265988 0.16916,-0.3168011 -0.01727,-0.4354756 -0.05626,-0.035822 -0.154106,-0.055392 -0.415091,-0.058568 z"
         sodipodi:nodetypes="ccccccsccc" /></g></g><g
     inkscape:label="Calque 1"
     inkscape:groupmode="layer"
     id="layer1"
     transform="translate(-144.04636,-129.95164)"
     style="display:inline;opacity:1" /></svg>
